<?xml version="1.0" encoding="utf-8"?>
<!-- Generator: Adobe Illustrator 23.0.1, SVG Export Plug-In . SVG Version: 6.00 Build 0)  -->
<svg version="1.1" id="Livello_1" xmlns="http://www.w3.org/2000/svg" xmlns:xlink="http://www.w3.org/1999/xlink" x="0px" y="0px"
	 viewBox="0 0 500 500" style="enable-background:new 0 0 500 500;" xml:space="preserve">
<style type="text/css">
	.st0{fill:#EBEBEB;}
	.st1{opacity:0.35;fill:#F5F5F5;}
	.st2{fill:#407BFF;}
	.st3{opacity:0.2;fill:#FFFFFF;enable-background:new    ;}
	.st4{opacity:0.4;fill:#52CEFF;enable-background:new    ;}
	.st5{fill:#263238;}
	.st6{opacity:0.5;fill:#FFFFFF;enable-background:new    ;}
	.st7{opacity:0.2;enable-background:new    ;}
	.st8{opacity:0.6;fill:#0093E9;enable-background:new    ;}
	.st9{opacity:0.4;fill:#FFFFFF;enable-background:new    ;}
	.st10{opacity:0.6;fill:#FFFFFF;enable-background:new    ;}
	.st11{opacity:0.5;enable-background:new    ;}
	.st12{fill:#E0E0E0;}
	.st13{opacity:0.1;enable-background:new    ;}
	.st14{fill:#E4897B;}
	.st15{fill:#DE5753;}
	.st16{fill:none;stroke:#263238;stroke-width:0.708;stroke-linecap:round;stroke-linejoin:round;}
	.st17{fill:none;stroke:#263238;stroke-width:0.4885;stroke-linecap:round;stroke-linejoin:round;}
</style>
<g id="freepik--background-complete--inject-2">
	<rect x="322.5" y="485.8" class="st0" width="8.7" height="0.3"/>
	<rect x="396.6" y="473.8" class="st0" width="19.2" height="0.3"/>
	<rect x="104.6" y="475.5" class="st0" width="6.3" height="0.3"/>
	<rect x="131.5" y="479.7" class="st0" width="93.7" height="0.3"/>
	<path class="st1" d="M227.7,258.7h71c6.3-0.2,11.2-5.4,11-11.6c-0.2-6.3-5.4-11.2-11.6-11c-1,0-2,0.2-3,0.5
		c0.2-1.2,0.3-2.3,0.3-3.5c0-13.3-10.7-24-24-24c-1.5,0-3,0.1-4.4,0.4c-6.1-9.9-19-13-28.9-6.9c-6.1,3.7-9.9,10.4-10,17.5h-0.4
		c-10.7,0-19.3,8.7-19.3,19.3S217.1,258.7,227.7,258.7L227.7,258.7z"/>
	<path class="st1" d="M147.4,187.3h26.7c2.4,0,4.2-2,4.2-4.3c0-2.4-2-4.2-4.3-4.2l0,0c-0.4,0-0.8,0.1-1.2,0.2
		c0.1-0.4,0.1-0.9,0.1-1.3c0-5-4-9-9-9c-0.6,0-1.2,0.1-1.7,0.2c-2.3-3.7-7.1-4.9-10.8-2.6c-2.3,1.4-3.8,3.9-3.8,6.6h-0.1
		c-4-0.1-7.4,3-7.5,7c-0.1,4,3,7.4,7,7.5C147.1,187.3,147.2,187.3,147.4,187.3L147.4,187.3z"/>
	<path class="st1" d="M52.5,246.2h38.6c3.4,0,6.1-2.8,6.1-6.2c0-3.4-2.8-6.1-6.2-6.1l0,0c-0.6,0-1.2,0.1-1.8,0.3
		c1.1-7.1-3.8-13.7-10.9-14.8c-0.7-0.1-1.3-0.2-2-0.1c-0.8,0-1.6,0.1-2.4,0.2c-3.3-5.4-10.3-7.1-15.7-3.8c-3.4,2-5.4,5.7-5.5,9.6
		h-0.2c-5.8,0.4-10.2,5.3-9.9,11.1C43,241.6,47.2,245.9,52.5,246.2L52.5,246.2z"/>
	<path class="st1" d="M382,224.1h38.6c3.4,0,6.1-2.8,6.1-6.2c0-3.4-2.8-6.1-6.2-6.1c-0.6,0-1.2,0.1-1.8,0.3
		c1.1-7.1-3.8-13.7-10.8-14.8c-0.7-0.1-1.4-0.2-2.1-0.2c-0.8,0-1.6,0.1-2.4,0.2c-3.3-5.4-10.3-7.1-15.7-3.8c-3.4,2-5.4,5.7-5.5,9.6
		H382c-5.8,0.4-10.2,5.3-9.9,11.1C372.5,219.5,376.8,223.7,382,224.1L382,224.1z"/>
	<path class="st1" d="M467.5,320.5c0-5.7-4.6-10.3-10.3-10.3c-1,0-2,0.1-3,0.4c1.7-11.9-6.5-23-18.4-24.7c-2.4-0.3-4.8-0.3-7.1,0.1
		c-0.3-0.5-0.7-1.1-1.1-1.6c0-0.3,0-0.7,0-1c0-9.7-7.9-17.6-17.5-17.6c0,0,0,0,0,0h-0.3c-0.1-10.5-8.6-19-19.1-18.9
		c-6.7,0-12.8,3.6-16.2,9.3c-1.3-0.2-2.7-0.4-4-0.4c-12,0-21.8,9.8-21.8,21.8c0,1.1,0.1,2.1,0.2,3.2c-5.4-1.7-11.2,1.4-12.8,6.8
		s1.4,11.2,6.8,12.8c0.9,0.3,1.8,0.4,2.7,0.4h16.3c-1.8,1.4-3.4,3.2-4.6,5.1c-1.3-0.3-2.7-0.4-4-0.4c-12,0-21.8,9.8-21.8,21.8
		c0,1.1,0.1,2.1,0.2,3.2c-5.4-1.6-11.2,1.4-12.8,6.9c-0.3,1-0.4,2-0.4,3h-11.8c-2.5-9.6-11.2-16.3-21.1-16.3c-1.3,0-2.7,0.1-4,0.4
		c-3.5-5.7-9.6-9.1-16.3-9.1c-1,0-1.9,0.1-2.9,0.2c-0.1-10.5-8.6-18.9-19.1-18.9c-6.6,0-12.8,3.6-16.2,9.3c-1.3-0.3-2.7-0.4-4-0.4
		c-11.5,0-21.1,9-21.8,20.5c-16.6,1.8-30.7,13-36.1,28.8c-1.3-0.3-2.6-0.5-3.9-0.5h-0.3c-0.1-10.5-8.6-18.9-19.1-18.9
		c-6.6,0-12.8,3.5-16.2,9.3c-1.3-0.2-2.7-0.4-4-0.4c-1.1,0-2.3,0.1-3.4,0.3c-1.4-0.9-3-1.5-4.6-1.9c-0.7-4.6-2.8-8.9-6.1-12.3h39.6
		c5.7-0.1,10.2-4.8,10-10.5c-0.1-5.7-4.8-10.2-10.5-10c-0.9,0-1.9,0.2-2.8,0.4c1.7-11.9-6.5-23-18.4-24.7c-2.4-0.3-4.8-0.3-7.1,0.1
		c-5.4-9-17-12-26-6.6c-5.7,3.4-9.2,9.6-9.3,16.2h-0.3c-9.7,0-17.5,7.8-17.5,17.5c0,1.1,0.1,2.3,0.3,3.4
		c-7.6,2.6-12.7,9.7-12.8,17.7h-0.3c-9.7,0-17.5,7.9-17.5,17.5c0,0.2,0,0.3,0,0.5s0,0.3,0,0.5c0,1.1,0.2,2.1,0.5,3.1
		c1.5,6.4,6.4,11.4,12.8,13c1.5,10.7,10.7,18.7,21.5,18.7c1.3,0,2.7-0.1,4-0.4c1.2,1.9,2.7,3.7,4.5,5.1
		c2.4,23.6,23.5,40.8,47.2,38.4c10.1-1,19.6-5.6,26.6-13c2.6,2.1,6.1,2.7,9.3,1.8c-0.2,1-0.2,2.1-0.2,3.2c0,12,9.8,21.8,21.8,21.8
		c0,0,0,0,0,0c1.3,0,2.7-0.1,4-0.4c5.4,9,17.1,11.9,26.1,6.5c4.3-2.6,7.3-6.7,8.6-11.5c14.3,18.9,41.3,22.6,60.2,8.3
		c5.8-4.4,10.4-10.2,13.3-16.9c15.8,5.7,33.5-0.3,42.6-14.4h26.5c6.7,0,12.8-3.5,16.3-9.2c1.3,0.3,2.7,0.4,4,0.4
		c12,0,21.8-9.8,21.8-21.8c0-1.1-0.1-2.1-0.2-3.2c5.4,1.6,11.2-1.5,12.8-6.9c0.2-0.8,0.4-1.6,0.4-2.4c16.4-7,25.3-24.9,20.9-42.2
		h17.1C463.1,330.6,467.5,326.1,467.5,320.5z"/>
	<path class="st0" d="M465.7,466.6l-20.1-25.4l-16.5-3.3l-3.7-45.2l-11.3-7.8l-3.9-38.7L400,334.7l-4.7,8.9l-7.7,14l-2.6,13.8
		l-4.4,12.3l-9.4,14.7l-8.5-7.5c0,0-4.6-7.5-6.8-8.5s-11.2-1.8-11.2-1.8l-12.5,12v9.4l-12.8,6.9l-7.9,7.9l-4.7,5.8l-21.6,11.2
		l-4.1,19.6l-33.3,13.1H465.7z"/>
</g>
<path class="st2" d="M145.6,443.9c0,0,7.3-12.1,6.5-14.6s-4.6,6.4-4.6,6.4s2.1-20.8-1.2-22.2s-2.4,17.8-2.4,17.8
	s-5.2-28.8-10.2-28.2s6.1,28.5,6.1,28.5s-6.9-13-10.2-11.4s7.6,14.7,7.6,14.7s-5.6-3.7-6.4-1.7S139,442.7,145.6,443.9z"/>
<path class="st3" d="M145.6,443.9c0,0,7.3-12.1,6.5-14.6s-4.6,6.4-4.6,6.4s2.1-20.8-1.2-22.2s-2.4,17.8-2.4,17.8
	s-5.2-28.8-10.2-28.2s6.1,28.5,6.1,28.5s-6.9-13-10.2-11.4s7.6,14.7,7.6,14.7s-5.6-3.7-6.4-1.7S139,442.7,145.6,443.9z"/>
<path class="st2" d="M148.3,442.8c0,0,11.4,2.2,13.2,0.9s-6.2-1.7-6.2-1.7s16.7-4.3,16.8-7.2s-14.5,3.2-14.5,3.2
	s20.8-12.2,18.9-15.9s-20.4,12.8-20.4,12.8s8.1-9,5.9-11.1s-9.3,10-9.3,10s1.3-5.4-0.5-5.4S147.4,437.4,148.3,442.8z"/>
<path class="st3" d="M148.3,442.8c0,0,11.4,2.2,13.2,0.9s-6.2-1.7-6.2-1.7s16.7-4.3,16.8-7.2s-14.5,3.2-14.5,3.2
	s20.8-12.2,18.9-15.9s-20.4,12.8-20.4,12.8s8.1-9,5.9-11.1s-9.3,10-9.3,10s1.3-5.4-0.5-5.4S147.4,437.4,148.3,442.8z"/>
<path class="st2" d="M149.7,441.7c0,0,14.3-6.4,15.2-9.1s-8.2,2.9-8.2,2.9s15.1-17.5,13.1-20.9s-13.5,14.6-13.5,14.6
	s13.6-29.4,8.8-32S152.3,427,152.3,427s2-16.2-2-16.8s-2.5,18.2-2.5,18.2s-2.7-6.9-4.7-5.6S144.5,436.4,149.7,441.7z"/>
<path class="st4" d="M149.7,441.7c0,0,14.3-6.4,15.2-9.1s-8.2,2.9-8.2,2.9s15.1-17.5,13.1-20.9s-13.5,14.6-13.5,14.6
	s13.6-29.4,8.8-32S152.3,427,152.3,427s2-16.2-2-16.8s-2.5,18.2-2.5,18.2s-2.7-6.9-4.7-5.6S144.5,436.4,149.7,441.7z"/>
<path class="st5" d="M168.3,464c0,0-15.3-24.3-21.6-25.3s-21.1-39.7-26.7-43.3S101.6,383,101.6,383S89,330.2,86.9,329.3
	s-15.3,12.5-15.3,12.5L65.1,352l-8.3,6.8v53.5c0,0-4.8,21.5-4.8,24.5s4.2,49.3,4.2,49.3l-4.2,7h126.8L168.3,464z"/>
<path class="st6" d="M178.8,493.1H52l4.2-7c0,0-4.2-46.4-4.2-49.3s4.8-24.5,4.8-24.5v-53.5l8.3-6.8l5.4-8.5l1.1-1.7
	c0,0,13.2-13.4,15.3-12.5s14.8,53.7,14.8,53.7s12.7,8.7,18.3,12.3s20.4,42.3,26.7,43.3s21.6,25.3,21.6,25.3L178.8,493.1z"/>
<path class="st7" d="M130.1,484.3l-3,8.8H52l4.2-7c0,0-4.2-46.4-4.2-49.3s4.8-24.5,4.8-24.5v-53.5l8.3-6.8l5.4-8.5l-1.6,50.8
	c0,0,13.2-7.5,14.1-7.4s18.8,10.4,18.8,10.4L130.1,484.3z"/>
<g id="freepik--Backpack--inject-2">
	<path class="st5" d="M72.4,415.5c0,0-6.1,9.4-7.4,16.9s-5.9,26.5-2,30s17,14.2,17,14.2l2.1-3.2c0,0-11.8-6.1-17.6-12.9
		c-0.3-3.8,0-7.6,0.8-11.3c0,0,3.4-18,9.2-22.2S72.4,415.5,72.4,415.5z"/>
	<path class="st5" d="M105.4,394.3l-32.2,4.3c0,0-4.9,2.3-5.9,6.6s8,45.4,8,45.4s2.1,33.1,5.3,39s19.1,3.6,19.1,3.6L117,456
		L105.4,394.3z"/>
	<path class="st3" d="M105.4,394.3l-32.2,4.3c0,0-4.9,2.3-5.9,6.6s8,45.4,8,45.4s2.1,33.1,5.3,39s19.1,3.6,19.1,3.6L117,456
		L105.4,394.3z"/>
	<path class="st2" d="M115.1,387.9c-8.3-2.5-28.1,0.4-32.4,1.1c-0.9,0.2-1.7,0.5-2.5,1c-3.3,2.1-5.8,6.4-5.8,6.4s-4.2,2.5-3.7,3.8
		s13.8,76.7,18,93.1c1.7,0.9,3.5,1.6,5.4,2c0.3,0.1,0.7,0.1,1,0.2c4.8,0.6,28,3,35.6-2.4c1.3-0.9,2-3.8,2.3-8.1
		C134.7,460.4,122.2,390,115.1,387.9z"/>
	<path class="st7" d="M98,483.8c-2.6-1.3-7.4-34.3-9.5-43.8s-10.4-48-8.3-50c-3.3,2.1-5.8,6.4-5.8,6.4s-4.2,2.5-3.7,3.8
		s13.8,76.7,18,93.1c1.5,0.8,3,1.4,4.6,1.8l0.8,0.2c0.3,0.1,0.6,0.1,0.9,0.2c4.7,0.6,28,3,35.7-2.4c1.3-0.9,2-3.8,2.3-8.1
		C125.1,487.1,100.3,484.9,98,483.8z"/>
	<path class="st6" d="M118.1,435c0,0-4.6-9.8-6.6-10.6s-2.5,9.9-2.5,9.9l3.1-2.4L118.1,435z"/>
</g>
<path class="st2" d="M333.5,474.6c0,0-6.6-0.3-7.3-13.6s11-16.9,19.9-15.2c0,0-1.3-9.5,4.5-9.1s5.4,6.7,5.4,6.7s2-13.4,9.9-13.4
	s0,15.9,0,15.9s11-3.9,15,0s-5,8.4-5,8.4s14.2,3.4,8.3,14.3c0,0,9.9,1.1,12.7,6c0,0-0.8-9.8,2.8-9.1s2.8,9.3,2.8,9.3
	s5.9-9.5,11.1-6.1s-2.5,11.4-2.5,11.4s9.9-3.5,11.5,1.1s-5.5,6.4-5.5,6.4s10.3-1.8,10.3,7c0,0,19.8-1.4,24.5,6.4H333.9L333.5,474.6z
	"/>
<path class="st4" d="M333.5,474.6c0,0-6.6-0.3-7.3-13.6s11-16.9,19.9-15.2c0,0-1.3-9.5,4.5-9.1s5.4,6.7,5.4,6.7s2-13.4,9.9-13.4
	s0,15.9,0,15.9s11-3.9,15,0s-5,8.4-5,8.4s14.2,3.4,8.3,14.3c0,0,9.9,1.1,12.7,6c0,0-0.8-9.8,2.8-9.1s2.8,9.3,2.8,9.3
	s5.9-9.5,11.1-6.1s-2.5,11.4-2.5,11.4s9.9-3.5,11.5,1.1s-5.5,6.4-5.5,6.4s10.3-1.8,10.3,7c0,0,19.8-1.4,24.5,6.4H333.9L333.5,474.6z
	"/>
<path class="st2" d="M154,474.6c0,0,4.9-0.3,5.4-13.6s-8.1-16.9-14.7-15.2c0,0,1-9.5-3.3-9.1s-4,6.7-4,6.7s-1.5-13.4-7.3-13.4
	s0,15.9,0,15.9s-8.1-3.9-11,0s3.7,8.4,3.7,8.4s-10.5,3.4-6.1,14.3c0,0-7.3,1.1-9.3,6c0,0,0.6-9.8-2-9.1s-2,9.3-2,9.3
	s-4.4-9.5-8.2-6.1s1.8,11.4,1.8,11.4s-7.3-3.5-8.5,1.1s4.1,6.4,4.1,6.4s-7.6-1.8-7.6,7c0,0-14.6-1.4-18.1,6.4h87L154,474.6z"/>
<path class="st4" d="M154,474.6c0,0,4.9-0.3,5.4-13.6s-8.1-16.9-14.7-15.2c0,0,1-9.5-3.3-9.1s-4,6.7-4,6.7s-1.5-13.4-7.3-13.4
	s0,15.9,0,15.9s-8.1-3.9-11,0s3.7,8.4,3.7,8.4s-10.5,3.4-6.1,14.3c0,0-7.3,1.1-9.3,6c0,0,0.6-9.8-2-9.1s-2,9.3-2,9.3
	s-4.4-9.5-8.2-6.1s1.8,11.4,1.8,11.4s-7.3-3.5-8.5,1.1s4.1,6.4,4.1,6.4s-7.6-1.8-7.6,7c0,0-14.6-1.4-18.1,6.4h87L154,474.6z"/>
<path class="st2" d="M305,469.5c0,0,10-37.4,30.9-62.8c3.2-3.9,4.4,1.1,0,7.1s-17,46.3-17,46.3s10.7-20.8,26.5-35.9
	s19.8-13.5,20.6-12.1s-26.5,27.2-36.4,54.3c0,0,24.9-20.9,40.8-24.4s-13.1,5.9-32.6,31.9c0,0,17.6-9.6,37.2-4.3s-12.7-1.9-34.9,13.6
	c0,0,19.3-2.8,26.8,5.3s-8-2.5-23.8,5.8c0,0,15.5,1.8,21.8,6.6h-52.2L305,469.5z"/>
<path class="st8" d="M305,469.5c0,0,10-37.4,30.9-62.8c3.2-3.9,4.4,1.1,0,7.1s-17,46.3-17,46.3s10.7-20.8,26.5-35.9
	s19.8-13.5,20.6-12.1s-26.5,27.2-36.4,54.3c0,0,24.9-20.9,40.8-24.4s-13.1,5.9-32.6,31.9c0,0,17.6-9.6,37.2-4.3s-12.7-1.9-34.9,13.6
	c0,0,19.3-2.8,26.8,5.3s-8-2.5-23.8,5.8c0,0,15.5,1.8,21.8,6.6h-52.2L305,469.5z"/>
<polygon class="st5" points="139,500.8 326.2,500.8 310.4,468.4 312.5,446.8 309.4,436.8 306.2,409.6 310.4,396.4 303.5,387.6 
	245,383 178.8,402.5 129.5,458.3 132.7,479.4 114.2,500.8 "/>
<path class="st9" d="M114.2,500.8l18.5-21.4l-3.2-21.1l49.3-55.8L245,383l36.7,2.9l0,0l21.8,1.7l6.9,8.8l-4.2,13.2l3.2,27.2l3.2,10
	l-2.1,21.6l15.8,32.4L114.2,500.8z"/>
<path class="st7" d="M299,395.1l-7.9,7.4l-5.5,11.4l10.9,11.6l-10.9,2l-24.9-7.4l-8.6,2.9c0,0-17.2,1.2-24.8,2.3
	s-18.2,13.9-21.8,12.3s0-12.3,0-12.3s-24.4,0.1-25.2-4.3s-1.7-18.5-1.7-18.5L245,383l36.7,2.9l0,0C304.3,390.8,299,395.1,299,395.1z
	"/>
<path class="st7" d="M250.4,458.6c0,0-7.9,11.9-11.3,12.3s-26,6-26,6s-3.8,12.3-8.4,12.7s-37.4,4.7-39,4.7s-16.2-16.8-19.8-18.7
	s-13.3,3.9-13.3,3.9l-3.2-21.1c0,0,39,11.8,42.2,12.2s11.9,2.6,13.9,5.3s24.9-0.3,24.9-0.3s6.4-21.3,10.5-20.5
	S250.4,458.6,250.4,458.6z"/>
<path class="st7" d="M312.5,446.8l-2.1,21.6l-10.9-4.3l-13.9,11.6l8.8,18.5c0,0-11.9-5.9-14.4-6.7s-27.7,0-27.7,0s11.7-5.9,17.2-7.5
	s8.3-19,10.5-21.8S312.5,446.8,312.5,446.8z"/>
<path class="st2" d="M152.4,498.6c0,0,20.2-13.1,16.3-15.3s-17.3,10.9-17.3,10.9s14.9-21.8,11.2-26.1s-13.6,17.7-13.6,17.7
	s6.7-25.2,2-28s-6.5,25.3-6.5,25.3s-1.9-30.4-10.6-30s4,30,4,30s-12.3-17.6-16.6-12.6s13.8,19,13.8,19s-13.6-6.4-14.5-1.6
	s15,9.8,15,9.8s-5.1,1.5-6.3,3.2h27.2C156.8,500.8,157.1,499.5,152.4,498.6z"/>
<path class="st8" d="M152.4,498.6c0,0,20.2-13.1,16.3-15.3s-17.3,10.9-17.3,10.9s14.9-21.8,11.2-26.1s-13.6,17.7-13.6,17.7
	s6.7-25.2,2-28s-6.5,25.3-6.5,25.3s-1.9-30.4-10.6-30s4,30,4,30s-12.3-17.6-16.6-12.6s13.8,19,13.8,19s-13.6-6.4-14.5-1.6
	s15,9.8,15,9.8s-5.1,1.5-6.3,3.2h27.2C156.8,500.8,157.1,499.5,152.4,498.6z"/>
<g id="freepik--Bottle--inject-2">
	<path class="st2" d="M202.8,465.8v-3.5h-6.2v3.5c0,0.9-0.4,1.9-1.1,2.5l0,0c-0.7,0.6-1.1,1.5-1.1,2.5v28.2c0,1,0.8,1.8,1.8,1.8h7
		c1,0,1.8-0.8,1.8-1.8v-28.2c0-0.9-0.4-1.9-1.1-2.5l0,0C203.2,467.7,202.8,466.8,202.8,465.8z"/>
	<path class="st10" d="M205,479.7v-8.9c0-0.9-0.4-1.9-1.1-2.5c-0.7-0.6-1.1-1.5-1.1-2.5v-3.5h-6.2v3.5c0,0.9-0.4,1.9-1.1,2.5
		s-1.1,1.5-1.1,2.5v8.9H205z"/>
	<path class="st10" d="M194.4,490.8v8.3c0,1,0.8,1.8,1.8,1.8h7c1,0,1.8-0.8,1.8-1.8v-8.3H194.4z"/>
	<path class="st2" d="M196.6,461.3h6.2c0.3,0,0.5,0.2,0.5,0.5v1.7c0,0.3-0.2,0.5-0.5,0.5h-6.2c-0.3,0-0.5-0.2-0.5-0.5v-1.7
		C196.1,461.6,196.3,461.3,196.6,461.3z"/>
</g>
<g id="freepik--Character--inject-2">
	<path class="st5" d="M212.2,305.7c0,0-10.7,12.4-18.2,10.9c0,0-6.4,5-11.3,2.6c0,0-8.8,1.1-9.9-2c-2,0.7-4.2-0.2-5-2.2l3.7-2.3
		l1.3,2.3c0,0,6-0.3,9.9-0.1c0,0,1.4-2.7,6.7-4.3c0,0-1.1-4.5,1.8-7.4C194.2,300.5,212.2,305.7,212.2,305.7z"/>
	<path class="st2" d="M251.2,379.3c-4.8-4.1-17-0.6-18.8-0.1l-1.2-7.1l-0.2-1.5l-32,2.5c-0.3,0.6-0.5,1.2-0.8,1.8
		c-0.6,1.4-1.1,2.8-1.6,4.2c-13.6,0-21.3,8.5-18.2,17.7c3.5,10.4,13.1,21.2,25.3,21.2c2.4,0,4.9-0.4,7.1-1.4
		c4.9-1.9,10.3-2.1,15.3-0.7c3.4,0.7,6.8,0.8,10.2,0.1C266.2,410.9,257.7,384.8,251.2,379.3z"/>
	<path class="st6" d="M236.4,416.1c-3.4,0.7-6.8,0.7-10.2-0.1c-5-1.5-10.4-1.2-15.3,0.7c-2.2,0.9-4.7,1.4-7.1,1.4
		c-12.2,0-21.8-10.8-25.3-21.2c-0.7-1.9-0.9-4-0.5-6c1.1-6.6,8.1-11.7,18.7-11.7c0.5-1.4,1-2.8,1.6-4.2c0.3-0.6,0.5-1.2,0.8-1.8
		l32.1-2.5l0.3,1.5l1.2,7.1c1.8-0.5,14-4,18.8,0.1c1.3,1.2,2.3,2.5,3.1,4.1C259.5,392.6,261.5,411.7,236.4,416.1z"/>
	<path class="st10" d="M218.3,374.7c0,0.9,0.7,1.6,1.6,1.6s1.6-0.7,1.6-1.6c0-0.9-0.7-1.6-1.6-1.6c0,0,0,0,0,0
		C219.1,373,218.3,373.8,218.3,374.7z"/>
	<polygon class="st11" points="198.9,373 197.6,376.4 231.7,374.7 230.9,370.6 	"/>
	<path class="st12" d="M216.9,371.8l0.4,3.7c0,0.4,0.4,0.7,0.8,0.7l5-0.4c0.4,0,0.7-0.4,0.7-0.8c0,0,0,0,0,0l-0.4-3.7
		c0-0.4-0.4-0.7-0.8-0.7l-5,0.3C217.3,371,216.9,371.3,216.9,371.8C216.9,371.7,216.9,371.8,216.9,371.8z"/>
	<polygon class="st2" points="208.6,372.3 208.2,376.7 206.9,376.7 207.1,372.3 	"/>
	<polygon class="st2" points="226.5,370.9 227,375.5 228.2,375.5 227.8,370.7 	"/>
	<polygon class="st6" points="208.6,372.3 208.2,376.7 206.9,376.7 207.1,372.3 	"/>
	<polygon class="st6" points="226.5,370.9 227,375.5 228.2,375.5 227.8,370.7 	"/>
	<path class="st13" d="M236.4,416.1c-3.4,0.7-6.8,0.7-10.2-0.1c-5-1.5-10.4-1.2-15.3,0.7c-2.2,0.9-4.7,1.4-7.1,1.4
		c-12.2,0-21.8-10.8-25.3-21.2c-0.7-1.9-0.9-4-0.5-6l38.4,5.8c-1.8-11.4-13.6-15-13.6-15c6.7-0.2,18.8,8.3,18.8,8.3
		c1.7-1.7,3.6-3,5.8-4c-0.8,1.1-1.5,2.2-1.9,3.5l2.7,0.6c3.5-8.1,8-11.7,18.6-12.4l7.6,5.8C259.5,392.6,261.5,411.7,236.4,416.1z"/>
	<path class="st14" d="M295.4,379.3c-0.7,0.3-1.4,0.4-2.2,0.3c-1,0-2.3-0.2-3.7-0.3c-1.6-0.1-12-8.9-12-8.9l-1.7-0.6l-0.3-0.1l0,0
		c-5.6-2-21.5-7.8-25.5-11.9c-4.2-4.4-8.1-9.1-11.4-14.2c-3.2-4.8-5.2-8.4-8.1-11l-0.1-6.8l-0.2-8.7c6.6,0,11.9,16.8,27.3,33.5
		c3.6,4,24.6,16.1,24.6,16.1s6.7-0.3,8.6,2c0.8,1.1,1.5,2.2,2.1,3.4C294.5,375.2,296,378.9,295.4,379.3z"/>
	<path class="st7" d="M238.7,343.7c-3.2-4.8-5.2-8.4-8.1-11l-0.1-6.8C232.8,327.8,238.5,333.4,238.7,343.7z"/>
	<path class="st7" d="M293.3,379.6c-1,0-2.3-0.2-3.7-0.3c-1.6-0.1-12-8.9-12-8.9l-1.7-0.6c3.3-0.8,6.8-0.7,10.1,0.2
		C290.5,371.6,294,374.4,293.3,379.6z"/>
	<path class="st2" d="M231,370.6l-32,2.5c-0.2-7.6-0.8-15.1-1.8-22.6c-0.3-2.2-0.7-4.3-1.2-6.4c-0.6-2.1-1.2-4.5-2-7
		c-0.4-1.3-0.8-2.6-1.2-4c-0.6-1.8-1.2-3.7-1.8-5.7c-0.7-2-1.3-3.9-2-5.9c3.2-1,6.4-1.9,9.7-2.5c1.2-0.3,2.5-0.5,3.7-0.7
		c4.8-0.9,9.6-1.4,14.4-1.6c1.6,0,3.2,0,4.8,0.1c4.6,0.2,8.7,0.6,8.7,0.6s1,0.3,1.7,6.9C232.5,330.4,232.3,347.9,231,370.6z"/>
	<path class="st14" d="M214.1,323.7c-7.9-1-10.3-4.4-10.3-4.4c3.3-3.1,2.7-7.6,1.8-10.4c-0.3-0.9-0.6-1.8-1-2.6l9.6,1.8
		c-0.2,1.3-0.3,2.7-0.4,4c0,1,0.1,2,0.3,3c0.6,2.9,2.3,2.9,2.3,2.9C218.1,321.1,214.1,323.7,214.1,323.7z"/>
	<path class="st7" d="M213.8,312.1c0,1,0.1,2,0.3,3c-3.8-0.5-6.7-3.5-8.5-6.2c-0.3-0.9-0.6-1.8-1-2.6l9.6,1.8
		C214,309.4,213.9,310.8,213.8,312.1z"/>
	<path class="st5" d="M200.4,277.1c-13.1,3.4-14.8,39.5,3.4,32.8c0.7-2.2,1.8-4.3,3.5-6c6.8-7.2,19-19.2,11.8-22.8
		C213.4,278,206.9,276.6,200.4,277.1z"/>
	<path class="st14" d="M211.3,281.9c8.3-0.3,11.1,4.1,12,12.7c1.1,10.7-1,18.4-11.5,16.4C197.6,308.3,197.5,282.3,211.3,281.9z"/>
	<path class="st15" d="M218,294.3c0.7,1.2,1.6,2.4,2.5,3.4c-0.5,0.7-1.3,1.1-2.2,1L218,294.3z"/>
	<path class="st5" d="M212.8,293.7c0,0.7-0.3,1.3-0.8,1.3c-0.5,0-0.9-0.5-0.9-1.2s0.3-1.3,0.8-1.3
		C212.4,292.5,212.8,293.1,212.8,293.7z"/>
	<path class="st5" d="M211.8,292.6l1.4-0.7C213.2,291.9,212.5,293.2,211.8,292.6z"/>
	<path class="st5" d="M221.3,293.1c0,0.7-0.3,1.3-0.8,1.3s-0.9-0.5-0.9-1.2c0-0.7,0.3-1.3,0.8-1.3S221.3,292.4,221.3,293.1z"/>
	<path class="st5" d="M220.2,292l1.4-0.7C221.7,291.3,221,292.6,220.2,292z"/>
	<path class="st16" d="M212.6,288c-1.3-0.1-2.7,0.4-3.6,1.4"/>
	<path class="st16" d="M218.6,287.4c1.1-0.3,2.4-0.1,3.3,0.6"/>
	<path class="st5" d="M202.7,296.2c0,0,3.7-7,2.9-12.2c0,0,16.3-7.3,17.6,9.4c0,0,1.1-14.9-13.2-14.8s-13.6,21.1-6,27.1
		C204,305.7,200.4,300.6,202.7,296.2z"/>
	<path class="st14" d="M204.1,297.9c-0.2-2-2-3.4-4-3.2c-2.6,0.4-3.6,5.7,2.8,6.8C203.8,301.6,204.3,300.7,204.1,297.9z"/>
	<path class="st16" d="M216.8,302.5c-1.1,0.2-2.3,0-3.4-0.5"/>
	<path class="st5" d="M200.4,277.1c0,0,11.6-3.7,20.3,2.2s-13.4,8.6-13.4,8.6l5.1-3.5c0,0-6.6,3.2-9.8,2.8L200.4,277.1z"/>
	<path class="st17" d="M219.5,279c0,0,4.1,1.4,4,4.2c-0.1,2.8-8.8,4.9-8.8,4.9"/>
	<path class="st14" d="M282.7,386.6c-15.4,12.1-49.5,26.1-49.5,26.1c-4.1-7.2-4.9-15.7-2.4-23.5c0.6-1.9,1.5-3.8,2.4-5.6
		c0,0,40.6-20.9,55-10.1C292.5,376.7,289.3,381.5,282.7,386.6z"/>
	<path class="st14" d="M179.5,387c6.5-14.7,26-5.4,32.5,3.3c7.1,9.4,2.6,23.7-8.2,23.6C194.7,413.8,173.6,400.2,179.5,387z"/>
	<path class="st13" d="M213.1,408.9c-2,3.2-5.5,5.1-9.3,5c-6.4-0.1-18.6-6.8-23.4-15.3c-2-3.6-2.7-7.6-1-11.6
		c0.1-0.2,0.1-0.3,0.2-0.5l0,0c1.6-3.8,5.2-6.5,9.3-7.1c8.2-1.2,18.6,5,23,10.9l0,0C216.4,396.2,216.4,403.9,213.1,408.9z"/>
	<path class="st7" d="M282.7,386.6c-15.4,12.1-49.5,26.1-49.5,26.1c-4.1-7.2-4.9-15.7-2.4-23.5c3.2,1.4,6.6,2.2,10.1,2.4
		c0,0,20.7-16.4,33.6-13.7C278.1,378.6,281.1,382,282.7,386.6z"/>
	<path class="st14" d="M263.9,402.7c-11.3,5.5-22.9,10.3-34.8,14.6c-8.6,3.1-14.6,5-14.6,5L211,414c1.9-0.7,3.8-1.4,5.6-2.2
		c8.2-3.6,16.1-8.1,23.5-13.2c22.7-15.2,41-32.8,49.2-24.2C297.2,382.8,282.4,393.5,263.9,402.7z"/>
	<path class="st5" d="M220.4,409.5l4.3,10.3c0,0-9.7,3.6-11.9,5.1c-2.9,2-6,7.9-8.4,7.5s-5.7-4.3-2.8-9.4s3.4-8.4,5.9-9.8
		s3.8-0.1,8.3-1.2C217.4,411.3,218.9,410.5,220.4,409.5z"/>
	<path class="st2" d="M216.7,426.2c0.1,0.3,0.2,0.5,0.1,0.8c-0.1,0.3-0.5,0.5-0.8,0.5c-0.3,0-0.5-0.1-0.7-0.2
		c-0.5-0.5-0.8-1.1-0.9-1.8c-0.1,0.8-0.3,1.6-0.8,1.8c-0.3,0.1-0.6,0-0.9-0.3c-0.3-0.3-0.5-0.7-0.4-1.1c0.1-1.3,1.7-2.7,1.8-2.8
		l0.1,0h0.1h0.1l0,0c0,0,0.1,0,0.1,0C215.3,424,216.1,425,216.7,426.2z M214.9,426c0.1,0.3,0.3,0.7,0.5,0.9c0.1,0.1,0.2,0.2,0.4,0.1
		c0.4,0,0.4-0.2,0.4-0.2c0.2-0.5-0.9-1.9-1.8-2.9C214.6,424.6,214.8,425.3,214.9,426L214.9,426z M212.7,426.2
		c0.1,0.1,0.1,0.3,0.2,0.4c0.1,0.1,0.3,0.3,0.4,0.2c0.4-0.2,0.6-1.6,0.6-3c-0.6,0.5-1.1,1.3-1.3,2.1
		C212.7,426,212.7,426.1,212.7,426.2L212.7,426.2z"/>
	<path class="st13" d="M263.9,402.7c-11.3,5.5-22.9,10.3-34.8,14.6c-4.3-1.5-8.5-3.3-12.6-5.4c8.2-3.6,16.1-8.1,23.5-13.2
		C248.2,398.9,256.2,400.2,263.9,402.7z"/>
	<path class="st14" d="M268.4,406.7l-1.6,8.9c0,0-29-1.4-53.8-6.6c-13.5-2.8-25.8-6.8-31.2-12.3c-2.8-2.8-3.8-6-2.4-9.6
		c0.1-0.2,0.1-0.3,0.2-0.5l0,0c1.4-2.5,4.9-3,9.9-2.4c5.8,0.8,13.7,3.2,22.4,6.2C230,396.4,251.8,405,268.4,406.7z"/>
	<path class="st5" d="M266,405.3l-0.8,10.9c0,0,10.3,0.9,12.9,1.8c3.4,1.1,7.9,6.1,10.1,5.1s4.4-5.7,0.2-9.8s-5.5-7.2-8.3-7.9
		s-3.7,0.9-8.3,1C269.8,406.2,267.9,405.8,266,405.3z"/>
	<path class="st2" d="M276.1,416.7L276.1,416.7L276.1,416.7l0.1-0.1l0,0h0.1l0,0c0,0,0.1,0,0.1,0s2.1,1,2.5,2.2
		c0.1,0.4,0.1,0.8-0.1,1.1c-0.2,0.4-0.5,0.6-0.8,0.5s-0.9-0.7-1.2-1.5c0.1,0.7-0.1,1.4-0.4,2c-0.1,0.2-0.4,0.4-0.6,0.4
		c-0.3,0.1-0.7,0-0.9-0.3c-0.1-0.2-0.2-0.5-0.1-0.8C274.9,419.1,275.4,417.8,276.1,416.7z M276.2,417.5c-0.7,1.3-1.3,2.9-1,3.3
		c0,0,0.1,0.2,0.5,0.1c0.1,0,0.3-0.1,0.3-0.2c0.2-0.3,0.3-0.6,0.3-1C276.3,419,276.3,418.3,276.2,417.5L276.2,417.5z M278.4,419
		c-0.4-0.7-1-1.3-1.8-1.7c0.4,1.4,1,2.7,1.4,2.8c0.1,0,0.3-0.2,0.3-0.3c0.1-0.1,0.1-0.3,0.1-0.4C278.5,419.2,278.5,419.1,278.4,419
		L278.4,419z"/>
	<path class="st7" d="M181.3,396.6c0,2.1-0.9,2-0.9,2c-2-3.6-2.7-7.6-1-11.6c0.1-0.2,0.1-0.3,0.2-0.5l0,0c1.6-3.8,5.2-6.5,9.3-7.1
		C191.6,385.9,181.3,388.8,181.3,396.6z"/>
	<path class="st7" d="M197.2,350.4c-0.3-2.2-0.7-4.3-1.2-6.4c-0.6-2.1-1.2-4.5-2-7l2.3-4.3C198.3,338.4,198.6,344.5,197.2,350.4z"/>
	<path class="st14" d="M195,340.3c0,0-0.8,15.2-2.3,22.7s-7.5,17.5-7.5,17.5l1.5,2.4c0,0-4.6,10.9-8.1,11.3c-2,0.2-3.9-3.5-5.6-5.5
		s5.4-8.1,5.4-8.1s0.7-3.3,1.7-7.2c1.4-5.6,3.2-12.7,4-13.7c0.1-0.2,0.2-0.5,0.2-0.8c0.2-1.6,0-5.5-0.1-10.2
		c-0.3-10.8-0.3-25.9,4.6-27.4c0,0,3.4-1,5.7,4.6C198.2,334.4,195,340.3,195,340.3z"/>
	<path class="st13" d="M188.9,358.5c-1.3-0.8-3.2-0.2-4.6,0.4c0.2-1.6,0-5.5-0.1-10.2C188.1,350.4,188.9,358.5,188.9,358.5z"/>
	<path class="st13" d="M182.7,379.3c-1.3-0.6-4.2,1.4-4.2,1.4s0.7-3.3,1.7-7.2C180.7,375.5,181.5,377.5,182.7,379.3z"/>
	<path class="st14" d="M204.6,323.7c-1.8-1.9-3.8-3.5-6-4.9c1.2-0.3,2.5-0.5,3.7-0.7c4.8-0.8,9.6-1.3,14.4-1.5c1.6,0,3.2,0,4.8,0.1
		C229.6,328.3,211.8,330.6,204.6,323.7z"/>
	<path class="st6" d="M230.3,334.2c0,0-3-3.7-3.9-3.8c-0.9-0.1,0,4.5,0,4.5l1.1-1.3L230.3,334.2z"/>
</g>
</svg>
